<svg id="Design" xmlns="http://www.w3.org/2000/svg" width="59.578" height="59.578" viewBox="0 0 59.578 59.578">
  <path id="Caminho_407" data-name="Caminho 407" d="M29.779,59.568A29.789,29.789,0,1,1,59.568,29.779,29.789,29.789,0,0,1,29.779,59.568Zm0-56.37A26.581,26.581,0,1,0,56.36,29.779,26.581,26.581,0,0,0,29.779,3.2Z" transform="translate(0.01 0.01)" fill="#fff"/>
  <path id="Caminho_408" data-name="Caminho 408" d="M24.082,26.357v14.8c0,.212.243.384.543.384h7.8c.3,0,.543-.172.543-.384V26.113h5.68a.507.507,0,0,0,.543-.346l.543-4.537a.325.325,0,0,0-.144-.29.666.666,0,0,0-.4-.122H32.966V17.6c0-.754.865-1.366,1.933-1.366h4.343c.3,0,.543-.172.543-.384V11.323a.333.333,0,0,0-.154-.277.671.671,0,0,0-.389-.116H31.907c-4.314,0-7.811,2.471-7.811,5.52v4.369H20.216a.68.68,0,0,0-.392.109.34.34,0,0,0-.164.275V25.73a.34.34,0,0,0,.164.275.68.68,0,0,0,.392.109h3.866Z" transform="translate(0.037 3.554)" fill="#fff" fill-rule="evenodd"/>
</svg>
