<svg id="Camada_2" data-name="Camada 2" xmlns="http://www.w3.org/2000/svg" width="59.578" height="59.578" viewBox="0 0 59.578 59.578">
  <g id="Design">
    <path id="Caminho_409" data-name="Caminho 409" d="M29.779,59.568A29.789,29.789,0,1,1,59.568,29.779,29.789,29.789,0,0,1,29.779,59.568Zm0-56.733A26.955,26.955,0,1,0,56.734,29.779,26.955,26.955,0,0,0,29.779,2.835ZM39.83,17.7a2.2,2.2,0,1,0,2.2,2.2,2.2,2.2,0,0,0-2.2-2.2Zm-9.8,2.834a9.26,9.26,0,1,0,9.26,9.249,9.26,9.26,0,0,0-9.26-9.249Zm0,15.18a5.931,5.931,0,1,1,5.931-5.931,5.931,5.931,0,0,1-5.931,5.931ZM48.7,22.09A11.292,11.292,0,0,0,37.413,10.8H22.519a11.3,11.3,0,0,0-11.3,11.292V37a11.3,11.3,0,0,0,11.3,11.336H37.413A11.292,11.292,0,0,0,48.7,37ZM45.168,37a7.755,7.755,0,0,1-7.755,7.755H22.519A7.766,7.766,0,0,1,14.753,37V22.09a7.766,7.766,0,0,1,7.766-7.755H37.413a7.755,7.755,0,0,1,7.755,7.755Z" transform="translate(0.01 0.01)" fill="#fff"/>
  </g>
</svg>
