<svg id="youtube" xmlns="http://www.w3.org/2000/svg" width="59.578" height="59.578" viewBox="0 0 59.578 59.578">
  <g id="Design">
    <path id="Caminho_410" data-name="Caminho 410" d="M29.779,59.568A29.789,29.789,0,1,1,59.568,29.779,29.789,29.789,0,0,1,29.779,59.568Zm0-56.37A26.581,26.581,0,1,0,56.36,29.779,26.581,26.581,0,0,0,29.779,3.2Z" transform="translate(0.01 0.01)" fill="#fff"/>
    <path id="Caminho_411" data-name="Caminho 411" d="M41.345,25.418c0-5.118-2.911-9.268-6.5-9.268H17.953c-3.591,0-6.5,4.149-6.5,9.268V36.7c0,5.118,2.911,9.268,6.5,9.268H34.842c3.591,0,6.5-4.149,6.5-9.268ZM30.689,31.627l-6.735,5.3c-.288.225-.548-.079-.548-.556V25.537c0-.477.269-.781.557-.543l6.782,5.521a.721.721,0,0,1,.214.581.647.647,0,0,1-.27.531Z" transform="translate(3.723 -1.157)" fill="#fff"/>
  </g>
</svg>
